PathFileType	4	(x/y/z)	A01_PREF_T0017.trc
DataRate	CameraRate	NumFrames	NumMarkers	Units	OrigDataRate	OrigDataStartFrame	OrigNumFrames
240	240	4	48	mm	240	39	309
Frame#	Time	TOP_HEAD			R_AC			L_AC			R_ASIS			L_ASIS			R_PSIS			L_PSIS			SACRAL			L_IC			R_IC			L_GT			R_GT			R_LAT_KNEE			R_MED_KNEE			L_MED_KNEE			L_LAT_KNEE			R_TOE			L_TOE			R_1ST_MET			L_1ST_MET			L_5TH_MET			R_5TH_MET			R_LAT_ANK			R_MED_ANK			L_MED_ANK			L_LAT_ANK			L_HEEL_SUP			R_HEEL_SUP			L_HEEL_LAT			R_HEEL_LAT			L_HEEL_MED			R_HEEL_MED			R_LL_PROX_POST			R_LL_PROX_ANT			R_LL_DIST_ANT			R_LL_DIST_POST			R_THIGH_PROX_POST			R_THIGH_PROX_ANT			R_THIGH_DIST_ANT			R_THIGH_DIST_POST			L_PROS_PROX_ANT			L_PROS_PROX_POST			L_PROS_DIST_POST			L_PROS_DIST_ANT			L_THIGH_PROX_ANT			L_THIGH_PROX_POST			L_THIGH_DIST_POST			L_THIGH_DIST_ANT			
		X1	Y1	Z1	X2	Y2	Z2	X3	Y3	Z3	X4	Y4	Z4	X5	Y5	Z5	X6	Y6	Z6	X7	Y7	Z7	X8	Y8	Z8	X9	Y9	Z9	X10	Y10	Z10	X11	Y11	Z11	X12	Y12	Z12	X13	Y13	Z13	X14	Y14	Z14	X15	Y15	Z15	X16	Y16	Z16	X17	Y17	Z17	X18	Y18	Z18	X19	Y19	Z19	X20	Y20	Z20	X21	Y21	Z21	X22	Y22	Z22	X23	Y23	Z23	X24	Y24	Z24	X25	Y25	Z25	X26	Y26	Z26	X27	Y27	Z27	X28	Y28	Z28	X29	Y29	Z29	X30	Y30	Z30	X31	Y31	Z31	X32	Y32	Z32	X33	Y33	Z33	X34	Y34	Z34	X35	Y35	Z35	X36	Y36	Z36	X37	Y37	Z37	X38	Y38	Z38	X39	Y39	Z39	X40	Y40	Z40	X41	Y41	Z41	X42	Y42	Z42	X43	Y43	Z43	X44	Y44	Z44	X45	Y45	Z45	X46	Y46	Z46	X47	Y47	Z47	X48	Y48	Z48	

39	0.15885	-339.28	1720.9	295.72	-588.22	1529.5	502.39	-595.64	1524.5	42.321	-621.75	1068.4	500.63	-568.97	1006.9	154.14	-815.62	1078.6	341.39	-791.33	1067.3	213.12	-821.8	1044.1	275.22	-594.41	1123.2	100.41	-642.34	1176.9	495.53	-618.55	924.4	109.65	-710.16	968.35	531.04	-822.62	578.52	476.81	NaN	NaN	NaN	-482.33	564.86	355.35	-498.32	564.6	197.17	-1002.6	57.546	337.94	-219.57	103.87	276.31	-1071.1	69.64	295.06	-299.16	69.51	328.36	-321.34	57.237	198.5	-1100	55.869	430.26	-1105.5	194.88	434.51	-1084.4	206.88	335.73	-438.41	126.22	303.59	-462.63	111.72	235.02	-542.04	65.059	273.01	-1188.2	254.35	374.41	-525.06	38.59	242.21	-1204.2	228.74	403.47	-518.81	37.142	306.8	-1200.9	236.5	343.86	-994	484.56	457.35	-945.72	439.35	489.1	-982.24	374.82	470.82	-1024.4	407.34	449.88	-784.3	846.64	500.65	-714.41	849.13	520.5	-732.13	759.25	515.08	-797.77	757.92	494.18	-437.77	492.84	214.78	-490.9	481.11	201.18	-484.98	419.16	210.75	-435.12	437.07	222.65	-522.09	810.9	163.17	-587	794.98	137.13	-556.56	726.95	155.29	-497.03	742.56	178.25
40	0.16303	-333.15	1721	295.13	-582.12	1530.2	501.59	-589	1524.4	41.496	-615.87	1068.6	500.63	-563.35	1007.5	154.1	-809.86	1078.6	342.03	-785.71	1067.8	213.67	-815.94	1044.2	275.82	-588.39	1123.3	100.41	-636.28	1177.6	495.19	-613.14	925.09	109.62	-703.73	968.15	531.24	-812.86	577.33	478.36	NaN	NaN	NaN	-476.59	565.19	354.68	-492.75	564.87	196.5	-1001.1	56.586	338.37	-219.01	102.04	276.01	-1068.6	71.757	295.64	-298.79	68.312	328.21	-321.1	56.077	198.3	-1097.9	57.811	430.63	-1099.9	197.45	435.77	-1078.6	209.35	336.98	-437.36	125.98	303.37	-461.81	111.61	234.91	-541.77	65.412	273.01	-1180.6	259.21	376.15	-524.95	38.873	242.18	-1197.4	234.01	405.11	-518.7	37.385	306.79	-1194.1	242.09	345.62	-984.77	485.31	458.95	-937.01	439.45	490.65	-974.33	375.44	472.21	-1016.1	408.5	451.27	-776.94	845.55	501.29	-707	848.74	520.84	-723.93	758.7	515.78	-789.6	756.7	495.04	-432.94	492.5	214.13	-486.19	481.32	200.58	-480.92	419.32	210.24	-430.87	436.71	222.02	-516.76	811.28	162.47	-581.89	795.44	136.93	-551.43	727.38	154.92	-491.7	742.9	177.44
41	0.16721	-327.07	1721.2	294.55	-576.03	1531	500.8	-582.37	1524.3	40.709	-609.99	1068.8	500.61	-557.78	1008.1	154.03	-804.12	1078.6	342.67	-780.11	1068.3	214.24	-810.12	1044.4	276.43	-582.46	1123.4	100.41	-630.29	1178.4	494.87	-607.77	925.81	109.57	-697.28	967.98	531.44	-802.94	576.15	479.93	NaN	NaN	NaN	-470.97	565.51	353.94	-487.3	565.1	195.76	-999.46	55.557	338.83	-218.47	100.31	275.71	-1065.8	74.012	296.29	-298.43	67.189	328.04	-320.89	54.982	198.09	-1095.6	59.96	431.03	-1094.1	200.19	437.03	-1072.5	211.97	338.22	-436.34	125.79	303.15	-461.03	111.53	234.79	-541.5	65.755	273.02	-1172.8	264.19	377.91	-524.84	39.148	242.16	-1190.3	239.42	406.78	-518.58	37.625	306.78	-1187.1	247.8	347.4	-975.33	486.11	460.61	-928.09	439.57	492.24	-966.21	376.11	473.61	-1007.6	409.72	452.7	-769.51	844.49	501.96	-699.53	848.39	521.2	-715.65	758.19	516.5	-781.34	755.51	495.92	-428.22	492.15	213.41	-481.59	481.5	199.92	-476.96	419.46	209.67	-426.73	436.35	221.34	-511.49	811.64	161.71	-576.85	795.92	136.68	-546.4	727.81	154.51	-486.46	743.22	176.55
42	0.17139	-321.03	1721.5	293.98	-569.96	1531.8	500.03	-575.73	1524.3	39.962	-604.11	1069.1	500.57	-552.23	1008.8	153.92	-798.4	1078.6	343.32	-774.54	1068.8	214.81	-804.33	1044.5	277.05	-576.62	1123.5	100.39	-624.36	1179.3	494.57	-602.45	926.57	109.5	-690.8	967.85	531.63	-792.86	574.99	481.51	NaN	NaN	NaN	-465.5	565.82	353.16	-481.99	565.3	194.95	-997.62	54.464	339.34	-217.96	98.683	275.4	-1062.7	76.398	297	-298.08	66.136	327.87	-320.68	53.955	197.87	-1093	62.315	431.46	-1088.1	203.08	438.28	-1066.3	214.72	339.45	-435.34	125.63	302.92	-460.28	111.46	234.67	-541.23	66.088	273.03	-1164.7	269.29	379.68	-524.71	39.417	242.15	-1183.1	244.94	408.46	-518.44	37.86	306.78	-1179.8	253.61	349.18	-965.7	486.95	462.32	-918.99	439.72	493.84	-957.9	376.83	475	-998.81	411	454.14	-762.01	843.44	502.65	-692	848.07	521.57	-707.27	757.72	517.22	-772.98	754.34	496.82	-423.62	491.79	212.62	-477.11	481.65	199.21	-473.1	419.59	209.05	-422.69	435.98	220.61	-506.27	811.97	160.88	-571.87	796.39	136.39	-541.46	728.23	154.05	-481.29	743.5	175.6
